<svg height="512" viewBox="0 0 52 58" width="512" xmlns="http://www.w3.org/2000/svg"><g id="Page-1" fill="none" fill-rule="evenodd"><g id="090---Coffee-Beans" fill-rule="nonzero" transform="translate(-1 -1)"><path id="Shape" d="m45 11v-9c-.0022703-.32142619-.1578508-.62245658-.4187432-.81022004-.2608923-.18776346-.5957467-.23969752-.9012568-.13977996l-3.68 1.32-1 .36-1-.33-3.42-1.14c-.1888348-.06847175-.3827673-.12197038-.58-.16-.6593154-.14001203-1.3406846-.14001203-2 0-.1972327.03802962-.3911652.09152825-.58.16l-3.42 1.14-1 .33-1-.33-3.42-1.14c-.1888348-.06847175-.3827673-.12197038-.58-.16-.6593154-.14001203-1.3406846-.14001203-2 0-.1972327.03802962-.3911652.09152825-.58.16l-3.42 1.14-1 .33-1-.36-3.68-1.32c-.3055101-.09991756-.64036447-.0479835-.90125685.13977996s-.41647285.48879385-.41874315.81022004v9c-.99 4.174-1.854 7.808-2.614 11h-.006l-2.071 8.711c-3.444 14.45-3.309 14.007-3.309 16.219v.07c.03 6.64 3.6 12 8 12h36c4.42 0 8-5.4 8-12.07 0-2.91.23-1.34-8-35.93z" fill="#cb8252"/><path id="Shape" d="m53 46.93c0 6.67-3.58 12.07-8 12.07-4.4 0-7.97-5.36-8-12v-.07c0-3.34.62-4.82 8-35.93 8.23 34.59 8 33.02 8 35.93z" fill="#805333"/><path id="Shape" d="m45 59h-36c-4.4 0-7.97-5.36-8-12h36c.03 6.64 3.6 12 8 12z" fill="#a56a43"/><path id="Shape" d="m45 52c-.5522847 0-1-.4477153-1-1v-18c0-.5522847.4477153-1 1-1s1 .4477153 1 1v18c0 .5522847-.4477153 1-1 1z" fill="#603e26"/><path id="Shape" d="m45 2v9h-36v-9c.0022703-.32142619.15785077-.62245658.41874315-.81022004s.59574675-.23969752.90125685-.13977996l3.68 1.32 1 .36 1-.33 3.42-1.14c.1888348-.06847175.3827673-.12197038.58-.16.6593154-.14001203 1.3406846-.14001203 2 0 .1972327.03802962.3911652.09152825.58.16l3.42 1.14 1 .33 1-.33 3.42-1.14c.1888348-.06847175.3827673-.12197038.58-.16.6593154-.14001203 1.3406846-.14001203 2 0 .1972327.03802962.3911652.09152825.58.16l3.42 1.14 1 .33 1-.36 3.68-1.32c.3055101-.09991756.6403645-.0479835.9012568.13977996.2608924.18776346.4164729.48879385.4187432.81022004z" fill="#cf976a"/><g fill="#a56a43"><path id="Shape" d="m16 2.4v8.6h-2v-8.63l1 .36z"/><path id="Shape" d="m22 1.1v9.9h-2v-9.9c.6593154-.14001203 1.3406846-.14001203 2 0z"/><path id="Shape" d="m28 2.4v8.6h-2v-8.6l1 .33z"/><path id="Shape" d="m34 1.1v9.9h-2v-9.9c.6593154-.14001203 1.3406846-.14001203 2 0z"/><path id="Shape" d="m40 2.37v8.63h-2v-8.6l1 .33z"/></g><path id="Shape" d="m39.26 35h-6.59-22.8-6.58l3.09-13h5.96 23.05 6.99z" fill="#f9eab0"/><path id="Shape" d="m28.23 34.01c-4.15 4.15-10.05 4.99-13.17 1.88-.081882-.0819094-.1586913-.1687373-.23-.26-.2257336-.2416769-.4298481-.5026758-.61-.78 2.47-2.35 4.33-.56 6.8-3.02 2.51-2.51.63-4.38 3.14-6.89 2.46-2.46 4.33-.67 6.79-3.02h.01c.1801664.2871299.3373238.5880696.47.9 1.39 3.25.21 7.8-3.2 11.19z" fill="#805333"/><path id="Shape" d="m30.96 21.92h-.01c-2.46 2.35-4.33.56-6.79 3.02-2.51 2.51-.63 4.38-3.14 6.89-2.47 2.46-4.33.67-6.8 3.02-.1893567-.2904333-.3501087-.5985413-.48-.92-1.38-3.25-.19-7.79 3.21-11.17 4.15-4.15 10.04-4.99 13.17-1.89.0845914.0793196.1615923.166364.23.26.2235261.2471046.4274756.5112359.61.79z" fill="#a56a43"/><path id="Shape" d="m31.43 22.82c-1.0219806.9148961-2.3212425 1.4606565-3.69 1.55-2.2441412.1239903-4.0360097 1.9158588-4.16 4.16-.2442863 3.1278827-2.7317046 5.6110563-5.86 5.85-1.0502631.0415273-2.0493386.4646233-2.81 1.19-.0214463.0261501-.048891.0467336-.08.06-.2257336-.2416769-.4298481-.5026758-.61-.78-.1893567-.2904333-.3501087-.5985413-.48-.92 1.0326609-.9011725 2.3324631-1.4386583 3.7-1.53 2.2441412-.1239903 4.0360097-1.9158588 4.16-4.16.2442863-3.1278827 2.7317046-5.6110563 5.86-5.85 1.0471634-.0421991 2.0428682-.4653736 2.8-1.19.0274939-.0263883.0576559-.0498476.09-.07.4567393.4953176.8223605 1.067447 1.08 1.69z" fill="#603e26"/></g></g></svg>