<svg height="512" viewBox="0 0 60 55" width="512" xmlns="http://www.w3.org/2000/svg"><g id="Page-1" fill="none" fill-rule="evenodd"><g id="038---Spilling-Coffee" fill-rule="nonzero"><path id="Shape" d="m47.39 30.75c-2.4 1.83-5.84 2.93-10.23 2.7-3.19-.17-5.02-.89-6.07-1.98-2.88-2.97.1-8.61-2.96-12.71-2.3736274-3.0184425-6.1166358-4.6263546-9.94-4.27-.87-2.13-1.07-3.82-.47-4.81 0-.01 0-.01.01-.02v-.01c.0755196-.1152597.1626404-.22248533.26-.32 2.54-2.54 12.19 3 21.57 12.37 2.8347013 2.8146944 5.4521849 5.8400107 7.83 9.05z" fill="#a4c2f7"/><path id="Shape" d="m51.58 43.54c-3.95 3.4-23.62 18.89-38.19 4.32-6.55-6.54-7.02-14.12-5.25-20.83.43601956-1.6459633.99423559-3.2571018 1.67-4.82.9170568-2.1070056 1.9900348-4.1426555 3.21-6.09 1.04-1.68 2.08-3.14 2.95-4.28.72-.94 1.32-1.67 1.75-2.16-.6.99-.4 2.68.47 4.81 1.74 4.29 6.17 10.4 12.17 16.4.22.22.44.43.66.65 8.78 8.6 17.65 13.76 20.56 12z" fill="#e8edfc"/><path id="Shape" d="m15.97 11.84c-.87 1.14-1.91 2.6-2.95 4.28-.758976-1.1975068-1.7774094-2.2091052-2.98-2.96-.61011924-.3422914-1.33659967-.4103913-1.99970344-.1874513-.66310377.2229401-1.20088675.7160941-1.48029656 1.3574513-1.62 3.06.69 6.22 3.25 7.88-.67576441 1.5628982-1.23398044 3.1740367-1.67 4.82-1.30655027-.6968115-2.50283243-1.5830712-3.55-2.63-1.61903778-1.5688981-2.77168124-3.555737-3.33-5.74-.77931891-3.2223789.2282389-6.6152535 2.64-8.89 1.42806353-1.55795094 3.52337673-2.32598389 5.62-2.06 2.61.35 4.87 2.29 6.45 4.13z" fill="#a4c2f7"/><path id="Shape" d="m26.74 33.14c-1.77 1.85-.43 3.24-2.27 5.09-1.89 1.88-3.3.47-5.18 2.36-1.85 1.84-.51 3.24-2.27 5.09-.28181-.1814624-.5433103-.3926743-.78-.63-2.34-2.34-1.71-6.76 1.41-9.87 2.79-2.8 6.63-3.59 9.09-2.04z" fill="#e8edfc"/><path id="Shape" d="m26.11 43.64c-2.79 2.8-6.63 3.59-9.09 2.04 1.76-1.85.42-3.25 2.27-5.09 1.88-1.89 3.29-.48 5.18-2.36 1.84-1.85.5-3.24 2.27-5.09.28181.1814624.5433103.3926743.78.63 2.33 2.34 1.71 6.76-1.41 9.87z" fill="#cad9fc"/><path id="Shape" d="m31.09 31.47-.07.07c-.22-.22-.44-.43-.66-.65-6-6-10.43-12.11-12.17-16.4 3.8233642-.3563546 7.5663726 1.2515575 9.94 4.27 3.06 4.1.08 9.74 2.96 12.71z" fill="#e8edfc"/><path id="Shape" d="m58.97 26.98c-.43 8.52-3.99 13.62-7.04 16.29-.0960306.1003238-.2074257.1847139-.33.25v.01c-.01.01-.01.01-.02.01-2.91 1.76-11.78-3.4-20.56-12l.07-.07c1.05 1.09 2.88 1.81 6.07 1.98 4.39.23 7.83-.87 10.23-2.7 4.0860196-2.951252 5.1874498-8.5633007 2.52-12.84-4.17-6.99 9.88-7.09 9.06 9.07z" fill="#e8edfc"/><path id="Shape" d="m50.159 13.756c2.9 1.107 6.222 5.121 5.811 13.224-.43 8.52-3.99 13.62-7.04 16.29-.0960306.1003238-.2074257.1847139-.33.25v.01c-.01.01-.01.01-.02.01-.0651903.0299277-.1319549.0562997-.2.079 1.0354633.3960179 2.1853396.3676304 3.2-.079.01 0 .01 0 .02-.01v-.01c.1225743-.0652861.2339694-.1496762.33-.25 3.05-2.67 6.61-7.77 7.04-16.29.576-11.355-6.183-14.675-8.811-13.224z" fill="#cad9fc"/><path id="Shape" d="m46.63 8.97c-1.18 1.17-3.71.54-5.66-1.41s-2.59-4.49-1.41-5.66 3.7-.54 5.65 1.42 2.59 4.48 1.42 5.65z" fill="#e8edfc"/><path id="Shape" d="m45.21 3.32c-1.81-1.82-4.1-2.471-5.359-1.627.8839773.3849879 1.6850523.93748852 2.359 1.627 1.95 1.95 2.59 4.48 1.42 5.65-.0926477.07995651-.1931614.15031612-.3.21 1.311.547 2.564.516 3.3-.21 1.17-1.17.53-3.7-1.42-5.65z" fill="#cad9fc"/><path id="Shape" d="m8.14 27.03c-1.77 6.71-1.3 14.29 5.25 20.83 4.1113122 4.328265 9.9597322 6.5647067 15.91 6.084-4.9110761-.3485774-9.5150526-2.5182592-12.91-6.084-6.55-6.54-7.02-14.12-5.25-20.83-6.825-3.643-9.787-11.691-4.24-17.26.89734307-.93023618 2.03134633-1.59819176 3.28-1.932-2.28875119-.5410576-4.69114779.19802365-6.28 1.932-5.547 5.569-2.585 13.617 4.24 17.26z" fill="#fff"/><path id="Shape" d="m7.949 41.725 1.834-.8c1.0375926 2.3276327 2.5014332 4.440637 4.316 6.23l-1.414 1.414c-1.9919129-1.9658108-3.59824239-4.2871197-4.736-6.844z" fill="#fff"/><g fill="#428dff"><path id="Shape" d="m10.836 45.813c-.5522847.0027614-1.00223852-.4427153-1.00499994-.995-.00276143-.5522847.44271524-1.0022385.99499994-1.005h.01c.5522847 0 1 .4477153 1 1s-.4477153 1-1 1z"/><path id="Shape" d="m16.624 46.586c.016.007.031.017.048.024.9808742.5586429 2.0922453.8474406 3.221.837 2.6230714-.0883816 5.1070277-1.2012974 6.919-3.1 3.5-3.49 4.138-8.552 1.415-11.286s-7.79-2.083-11.281 1.416-4.138 8.548-1.416 11.283c.3288484.3198145.6963605.5972962 1.094.826zm8.776-3.656c-2.092 2.1-4.822 2.948-6.856 2.343.3087966-.6151822.501679-1.2819655.569-1.967.0750939-1.5735515 1.3343972-2.8319887 2.908-2.906 2.4535641-.2008345 4.4019674-2.1466998 4.606-4.6.040939-.4082921.1420325-.8082855.3-1.187 1.792 1.98 1.134 5.662-1.527 8.317zm-7.039-7.039c1.4341982-1.5282542 3.4065722-2.4387737 5.5-2.539.4599678.0020085.9171585.0714125 1.357.206-.3050687.6128222-.4964981 1.2758793-.565 1.957-.0747187 1.575037-1.3358617 2.8344471-2.911 2.907-2.453545.2004966-4.4018381 2.1466743-4.605 4.6-.0408129.408637-.1419092.8089786-.3 1.188-1.798-1.985-1.137-5.667 1.521-8.319z"/><path id="Shape" d="m53.6 12.851c-1.891-.749-3.756-.477-4.756.7-.477.559-1.41 2.155.212 4.874 2.1998555 3.5155582 1.5650329 8.1021199-1.507 10.888-2.2349517-2.933263-4.6661927-5.7116333-7.277-8.316-8.79-8.781-19.506-15.844-22.982-12.372-.1150882.12113153-.2182319.25307506-.308.394l-.009-.007c-.358.426-.706.862-1.053 1.3-1.6376883-1.85447505-3.8410735-3.11731808-6.269-3.593-2.40585011-.31168801-4.81349039.56242818-6.459 2.345-2.65835071 2.5189834-3.76479881 6.2683164-2.9 9.827.60118769 2.3654085 1.84750016 4.5173746 3.6 6.216.93843451.9340707 1.9895195 1.7476622 3.129 2.422-.42961833 1.7514292-.6766038 3.5426603-.737 5.345-.10872624 3.0382295.46322528 6.0623292 1.674 8.851.09932672.2512811.29915826.4496111.55118133.5470397.25202307.0974287.53329718.0850875.77581867-.0340397.48418808-.2386821.7046096-.8086478.507-1.311-.27412222-.6252141-.51512274-1.2644329-.722-1.915-.19245728-.6549878-.35067156-1.3195546-.474-1.991-.25291079-1.3492227-.35786508-2.7220113-.313-4.094.10822195-2.7810943.65147503-5.5280653 1.61-8.141 1.6127873-4.336242 3.8694268-8.404868 6.694-12.069.1675993.7344122.3970857 1.4533137.686 2.149 1.854 4.572 6.485 10.827 12.389 16.731l.666.657c5.962 5.84 13.357 11.351 18.244 12.423-6.553 4.923-22.451 14.503-34.472 2.48-.3923789-.3789722-1.0160848-.3735524-1.4018186.0121814s-.3911536 1.0094397-.0121814 1.4018186c3.9097218 4.1230204 9.3480274 6.4492257 15.03 6.429 11.231 0 21.742-8.317 24.5-10.681.122471-.0817759.2372744-.1744888.343-.277.008-.007.019-.009.028-.017 2.549-2.23 6.9-7.4 7.381-16.991.432-8.422-3.012-12.848-6.368-14.183zm-14.747 9.556c2.5468133 2.540868 4.9188912 5.2510505 7.1 8.112-2.6473011 1.5224544-5.6975775 2.197075-8.74 1.933-2.689-.144-4.456-.692-5.406-1.678-1.135-1.171-1.133-3.005-1.13-5.129 0-2.407.006-5.135-1.747-7.484-2.400326-3.0924296-6.1430347-4.8396474-10.055-4.694-.749-2.107-.474-2.983-.3-3.269l.027-.046c.0272942-.0417449.0591577-.0803165.095-.115 1.619-1.62 10.073 2.298 20.156 12.37zm-10.126 5.342c-3.5390387-3.6619722-6.5628284-7.7889002-8.988-12.267 2.9878878.0690511 5.7814816 1.495849 7.589 3.876 1.356 1.815 1.353 4.087 1.35 6.285-.001.702.004 1.409.049 2.106zm-23.427-4.056c-1.48767985-1.4373823-2.54821016-3.2586977-3.064-5.262-.69076472-2.8851742.21485707-5.9194268 2.374-7.954 1.20924721-1.33298436 2.99057022-1.99562011 4.777-1.777 2.0730292.45206453 3.9372477 1.5797409 5.3 3.206-.6.812-1.19 1.636-1.747 2.48-.6655426-.8517982-1.4888606-1.5674908-2.425-2.108-.81260483-.4535737-1.77388946-.5599424-2.666-.295-.94699934.3086031-1.72986275.9854988-2.172 1.878-1.719 3.248.223 6.667 2.923 8.717-.207.51-.415 1.021-.6 1.541-.162.459-.3.93-.444 1.4-.8132785-.5287983-1.56934676-1.1407578-2.256-1.826zm4.13-3.016c-1.592-1.345-3.2-3.583-1.981-5.884.19598845-.4202287.55220583-.7443901.989-.9.38022196-.1079946.78805868-.0559765 1.129.144.8905634.5443626 1.6562414 1.2705129 2.247 2.131-.8765135 1.4587888-1.6733479 2.9639947-2.387 4.509zm48.541 6.253c-.447 8.851-4.389 13.566-6.7 15.588-.018.016-.026.039-.043.057s-.054.029-.076.05c-.0515316.0269801-.1009996.0577305-.148.092-1.02.532-3.584-.163-7.141-2.247 3.087753-.7177679 5.861291-2.4131754 7.908-4.834.241349-.2738752.3142862-.6575016.190285-1.0008392-.1240011-.3433376-.4252356-.5918267-.7858876-.6482809-.3606521-.0564541-.7234107.0880978-.9463974.3771201-2.2587556 2.5893214-5.4251504 4.2129667-8.846 4.536-2.0561562-1.4175723-4.0281505-2.9534974-5.906-4.6.513.067 1.048.123 1.63.154 3.8512915.3585988 7.7044253-.6659258 10.869-2.89l.011-.008c4.5115153-3.2491234 5.728412-9.4412116 2.782-14.156-.666-1.117-.819-2.072-.408-2.554.7357163-.5286363 1.7116352-.5813359 2.5-.135 2.588 1.029 5.484 4.847 5.11 12.219z"/><path id="Shape" d="m40.263 8.266c.9834356 1.02037378 2.22136 1.7598144 3.586 2.142.3840513.0980201.7786439.1487295 1.175.151.8564914.0290476 1.6886493-.2877418 2.309-.879.8427868-.9487387 1.1198138-2.27298854.728-3.48-.3828568-1.36435158-1.1221984-2.60211019-2.142-3.586-.9838873-1.01958928-2.2216793-1.7586056-3.586-2.141-1.2079956-.39425005-2.5344827-.11745437-3.484.727-.8449773.94963131-1.1221579 2.27651921-.728 3.485.3828179 1.36292242 1.1222308 2.59907446 2.142 3.581zm0-5.657c.2446018-.21111018.5626525-.31712708.885-.295.2362801.00285543.4713372.03442024.7.094 1.0108803.29782339 1.9264339.85453234 2.656 1.615.7611258.72978722 1.3185096 1.64566158 1.617 2.657.2050526.52856713.1298547 1.1248865-.2 1.586-.4613867.32915634-1.0573416.40430828-1.586.2-1.0109676-.29815054-1.9265213-.85520428-2.656-1.616-.7612217-.72710236-1.3190158-1.6406711-1.618-2.65-.2061107-.53036171-.1301086-1.12897286.202-1.591z"/></g></g></g></svg>