<svg height="512" viewBox="0 0 56 52" width="512" xmlns="http://www.w3.org/2000/svg"><g id="Page-1" fill="none" fill-rule="evenodd"><g id="038---Spilling-Coffee" fill="rgb(0,0,0)" fill-rule="nonzero" transform="translate(0 -2)"><ellipse id="Oval" cx="41.091" cy="6.438" rx="3" ry="5" transform="matrix(.707 -.707 .707 .707 7.483 30.942)"/><path id="Shape" d="m17.739 16.482c2.4251716 4.4780998 5.4489613 8.6050278 8.988 12.267-.045-.7-.05-1.4-.049-2.106 0-2.2.006-4.47-1.35-6.285-1.8075184-2.380151-4.6011122-3.8069489-7.589-3.876z"/><path id="Shape" d="m3.676 14.862c.44213725-.8925012 1.22500066-1.5693969 2.172-1.878.89211054-.2649424 1.85339517-.1585737 2.666.295.93861063.5419589 1.7639918 1.2597112 2.431 2.114.6-.92 1.191-1.759 1.733-2.5-1.360984-1.6227523-3.22182822-2.748192-5.291-3.2-1.78726208-.21988172-3.56990971.4424576-4.78 1.776-2.15914293 2.0345732-3.06476472 5.0688258-2.374 7.954.51527577 2.006505 1.57695735 3.8307834 3.067 5.27.6873805.6846544 1.44411989 1.2959443 2.258 1.824.309-1 .662-1.985 1.047-2.938-2.705-2.05-4.647-5.47-2.929-8.717z"/><path id="Shape" d="m26.931 19.161c1.753 2.349 1.75 5.077 1.747 7.484 0 2.124-.005 3.958 1.13 5.129.95.986 2.717 1.534 5.406 1.678 3.0424225.264075 6.0926989-.4105456 8.74-1.933-2.1811088-2.8609495-4.5531867-5.571132-7.1-8.112-10.084-10.072-18.538-13.99-20.154-12.37-.666.666-.137 2.54.179 3.43 3.9109231-.1446685 7.6523 1.6024488 10.052 4.694z"/><path id="Shape" d="m27.653 32.6c-5.9-5.9-10.535-12.159-12.389-16.731-.291394-.700985-.522237-1.4256312-.69-2.166-4.922 6.547-14.5 22.436-2.474 34.457s27.919 2.439 34.463-2.48c-4.887-1.072-12.282-6.583-18.244-12.423zm-2.841 12.744c-1.8119723 1.8987026-4.2959286 3.0116184-6.919 3.1-1.1287547.0104406-2.2401258-.2783571-3.221-.837-.017-.007-.032-.017-.048-.024-.3976395-.2287038-.7651516-.5061855-1.094-.826-2.722-2.735-2.086-7.8 1.416-11.286s8.549-4.136 11.281-1.416 2.086 7.799-1.415 11.289z"/><path id="Shape" d="m50.856 15.709c-.7883648-.4463359-1.7642837-.3936363-2.5.135-.411.482-.258 1.437.408 2.554 2.9434044 4.7115536 1.7300201 10.8982831-2.775 14.149l-.011.008c-3.1645747 2.2240742-7.0177085 3.2485988-10.869 2.89-.582-.031-1.117-.087-1.63-.154 1.8778495 1.6465026 3.8498438 3.1824277 5.906 4.6 3.4204115-.3222547 6.5867417-1.9447931 8.846-4.533.2229867-.2890223.5857453-.4335742.9463974-.3771201.360652.0564542.6618865.3049433.7858876.6482809.1240012.3433376.051064.726964-.190285 1.0008392-2.046709 2.4208246-4.820247 4.1162321-7.908 4.834 3.557 2.084 6.121 2.779 7.141 2.247.0470004-.0342695.0964684-.0650199.148-.092.022-.021.052-.03.076-.05s.025-.041.043-.057c2.311-2.022 6.253-6.737 6.7-15.588.372-7.366-2.524-11.184-5.117-12.215z"/><path id="Shape" d="m24.627 36.8c-.2040326 2.4533002-2.1524359 4.3991655-4.606 4.6-1.5751383.0725529-2.8362813 1.331963-2.911 2.907-.067321.6850345-.2602034 1.3518178-.569 1.967 2.034.6 4.764-.245 6.856-2.343 2.664-2.655 3.322-6.337 1.533-8.322-.1593787.3798192-.2614917.7811937-.303 1.191z"/><path id="Shape" d="m19.736 39.419c1.5751383-.0725529 2.8362813-1.331963 2.911-2.907.0685019-.6811207.2599313-1.3441778.565-1.957-.4398415-.1345875-.8970322-.2039915-1.357-.206-2.0934278.1002263-4.0658018 1.0107458-5.5 2.539-2.662 2.652-3.319 6.334-1.53 8.319.1580908-.3790214.2591871-.779363.3-1.188.2031619-2.4533257 2.151455-4.3995034 4.605-4.6z"/></g></g></svg>